<svg xmlns="http://www.w3.org/2000/svg" viewBox="0 0 32 32" fill="none">
  <rect width="32" height="32" rx="6" fill="#25D366"/>
  <path d="M16 7C11.032 7 7 11.032 7 16c0 1.628.432 3.152 1.184 4.472L7 25l4.696-1.232A8.956 8.956 0 0016 25c4.968 0 9-4.032 9-9s-4.032-9-9-9zm0 16.5c-1.472 0-2.872-.424-4.04-1.16l-.288-.168-2.992.784.8-2.912-.184-.304A7.45 7.45 0 018.5 16c0-4.136 3.364-7.5 7.5-7.5s7.5 3.364 7.5 7.5-3.364 7.5-7.5 7.5z" fill="white"/>
  <path d="M19.688 17.792c-.192-.096-1.136-.56-1.312-.624-.176-.064-.304-.096-.432.096-.128.192-.496.624-.608.752-.112.128-.224.144-.416.048-.192-.096-.808-.296-1.536-.944-.568-.504-.952-1.128-1.064-1.32-.112-.192-.012-.296.084-.392.088-.088.192-.224.288-.336.096-.112.128-.192.192-.32.064-.128.032-.24-.016-.336-.048-.096-.432-1.04-.592-1.424-.16-.368-.32-.32-.432-.32h-.368c-.128 0-.336.048-.512.24-.176.192-.672.656-.672 1.6s.688 1.856.784 1.984c.096.128 1.392 2.128 3.376 2.984.472.208.84.328 1.128.424.472.144.904.128 1.248.08.384-.056 1.136-.464 1.296-.912.16-.448.16-.832.112-.912-.048-.096-.176-.144-.368-.24z" fill="white"/>
</svg>
